<?xml version="1.0" encoding="UTF-8" standalone="no"?>
<svg
   width="1300pt"
   height="250pt"
   viewBox="0 0 1300 250"
   version="1.1"
   id="svg137"
   xmlns:xlink="http://www.w3.org/1999/xlink"
   xmlns="http://www.w3.org/2000/svg"
   xmlns:svg="http://www.w3.org/2000/svg">
  <defs
     id="defs141">
    <path
       id="SVGID_1_"
       d="m 193.1,51.9 v 39.6 c 0,2.7 2.2,4.9 4.9,5 2.7,0 4.9,-2.2 4.9,-4.9 V 51.9 c 0,-2.7 -2.2,-5 -4.9,-5 -2.7,0 -4.9,2.1 -4.9,4.9 v 0.1 M 15.5,80.5 c 0,-4.4 4.1,-7 9.8,-7 3.8,0 7.6,0.6 11.2,1.6 v 10.3 c -0.9,0.7 -4.3,2.9 -10.7,2.9 -6.7,-0.1 -10.3,-2.9 -10.3,-7.8 m -3,-31.7 c -1.9,0.7 -3.2,2.5 -3.2,4.6 0,2.9 2.7,5 6.8,3.7 3.2,-1.2 6.6,-1.9 10.1,-2 7.2,0 10.3,2.7 10.3,9 v 3 C 32.7,66.1 28.7,65.6 24.7,65.6 12.1,65.5 6.3,72.3 5.9,80 v 1.7 c 0.4,8.6 6.7,15.1 19,15.1 6.8,0.1 13.4,-1.7 19.2,-5.2 1.3,-0.7 2,-2.2 1.8,-3.6 V 64 C 45.9,51.5 38.6,46.1 26.8,46.1 21.9,46.1 17,47 12.5,48.8 m 95.8,31.7 c 0,-4.4 4,-7 9.7,-7 3.8,0 7.6,0.6 11.2,1.6 v 10.3 c -0.9,0.7 -4.3,2.9 -10.7,2.9 -6.6,-0.1 -10.2,-2.9 -10.2,-7.8 m -3,-31.7 c -1.9,0.7 -3.2,2.5 -3.2,4.6 0,2.9 2.7,5 6.8,3.7 3.2,-1.2 6.6,-1.9 10.1,-2 7.2,0 10.3,2.7 10.3,9 v 3 c -3.8,-1 -7.8,-1.5 -11.8,-1.5 -13,0 -18.8,7.3 -18.8,15.3 0,9.1 6.3,16 19,16 6.8,0.1 13.4,-1.7 19.2,-5.2 1.2,-0.8 1.9,-2.2 1.8,-3.6 V 64 c 0,-12.5 -7.3,-17.9 -19.2,-17.9 -4.9,0 -9.7,0.9 -14.2,2.7 m 41.8,2.3 c -1.4,0.8 -2.1,2.2 -2,3.8 v 36.4 c 0,2.7 2.2,5 4.9,5 2.7,0 4.9,-2.2 4.9,-4.9 V 91.3 58.1 c 3.4,-1.8 7.2,-2.6 11,-2.6 5.8,0 10.8,3.2 10.8,10.6 v 25.3 c 0,2.7 2.2,4.9 4.9,5 2.7,0 4.9,-2.1 4.9,-4.8 v 0 -26 c 0,-12.5 -6.9,-19.5 -20.3,-19.5 -9.7,-0.1 -16.4,3 -19.1,5 M 61.5,76.6 c -0.2,-3.6 -0.2,-7.2 0,-10.8 0.4,-6.8 3.7,-10.3 10.7,-10.3 4,0 7.9,1 11.4,2.8 v 25.8 c -3.2,2 -6.9,3.2 -10.6,3.3 -7.2,0 -11,-3.7 -11.5,-10.8 M 83.6,34.9 V 48.7 C 79.8,47 75.7,46.1 71.5,46 59.6,46 52.7,53.1 51.7,64.6 c -0.3,4.4 -0.3,8.8 0,13.1 1,11.4 8.6,19 21.1,19 6.7,-0.1 13.3,-2.1 18.9,-5.8 1.3,-0.8 2,-2.2 1.8,-3.7 V 34.8 c 0,-2.7 -2.1,-5 -4.8,-5 h -0.1 c -2.8,0.1 -5,2.3 -5,5.1 m 108.9,-0.1 c -0.2,3 2.1,5.6 5.2,5.8 3.1,0.2 5.6,-2.1 5.8,-5.2 0,-0.2 0,-0.4 0,-0.7 v 0 c 0.2,-3 -2.1,-5.6 -5.2,-5.8 -3.1,-0.2 -5.6,2.1 -5.8,5.2 -0.1,0.3 -0.1,0.5 0,0.7" />
  </defs>
  <style
     type="text/css"
     id="style1435">
	.st0{clip-path:url(#SVGID_2_);}
	.st1{fill:url(#SVGID_3_);}
</style>
  <g
     id="g15561"
     transform="translate(97.361967,-1129.5804)">
    <g
       id="Layer_2_1_"
       transform="matrix(1.543753,0,0,1.543753,-106.47011,1132.2413)">
      <g
         id="Layer_1-2">
        <g
           id="g1460">
          <g
             id="g1458">
            <defs
               id="defs1438" />
            <clipPath
               id="SVGID_2_">
              <use
                 xlink:href="#SVGID_1_"
                 style="overflow:visible"
                 id="use1440"
                 x="0"
                 y="0"
                 width="100%"
                 height="100%" />
            </clipPath>
            <g
               class="st0"
               clip-path="url(#SVGID_2_)"
               id="g1456">
              <linearGradient
                 id="SVGID_3_"
                 gradientUnits="userSpaceOnUse"
                 x1="-15.8315"
                 y1="67.596901"
                 x2="-12.6215"
                 y2="67.596901"
                 gradientTransform="matrix(115.62,-10.4058,-10.4058,-115.62,2447.9934,7731.0854)">
                <stop
                   offset="0"
                   style="stop-color:#00AE6B"
                   id="stop1443" />
                <stop
                   offset="0.35"
                   style="stop-color:#006DB3"
                   id="stop1445" />
                <stop
                   offset="0.65"
                   style="stop-color:#8C278C"
                   id="stop1447" />
                <stop
                   offset="0.9"
                   style="stop-color:#ED4C23"
                   id="stop1449" />
                <stop
                   offset="1"
                   style="stop-color:#ED4C23"
                   id="stop1451" />
              </linearGradient>
              <polygon
                 class="st1"
                 points="211.1,96.3 7.6,114.6 0,29.8 203.5,11.5 "
                 id="polygon1454"
                 style="fill:url(#SVGID_3_)" />
            </g>
          </g>
        </g>
      </g>
    </g>
    <g
       id="g15262"
       transform="matrix(1.1213764,0,0,1.1213764,-453.32261,-1186.7208)">
      <g
         id="g983-3-6-1"
         transform="matrix(0.74959637,0,0,0.74959637,651.15623,1751.0582)">
        <g
           id="#0c5097ff-6-8-9">
          <path
             fill="#0c5097"
             opacity="1"
             d="m 290.07,431.92 c 6.49,-0.7 12.92,-2.64 18.21,-6.57 -1.97,2.94 -4.41,5.57 -7.4,7.49 -7.16,4.71 -15.42,7.59 -23.83,9.03 -16.45,2.81 -33.35,0.09 -49.74,3.5 -7.95,1.51 -15.4,4.84 -22.36,8.9 8.67,-11.18 22.61,-16.65 36.2,-18.83 16.17,-2.74 32.67,-1.64 48.92,-3.52 z"
             id="path3-6-7-7" />
          <path
             fill="#0c5097"
             opacity="1"
             d="m 291.45,470.41 c 5.07,-13.95 12.88,-28.73 27.27,-34.8 -13.83,13.62 -18.87,33.17 -22.51,51.61 -2.74,16.83 -5.8,34.21 -15.11,48.84 -7.95,13.06 -20.75,22.79 -35.1,27.86 -19.78,7.11 -41.27,7.15 -61.95,5.12 -14.17,-1.48 -28.82,0.8 -41.5,7.44 6.53,-9.04 17.61,-13.48 28.33,-14.97 10.32,-1.61 20.72,0.26 31.08,-0.34 18.29,-0.63 37.07,-5.14 51.87,-16.35 13.34,-9.92 22.36,-24.63 27.8,-40.15 4.13,-11.18 5.69,-23.09 9.82,-34.26 z"
             id="path5-8-0-7" />
          <path
             fill="#0c5097"
             opacity="1"
             d="m 241.1,580.56 c 14.87,-2.77 28.6,-10.24 39.61,-20.52 -6.62,9.1 -13.07,18.76 -22.42,25.31 -10.51,7.54 -23.61,10.39 -36.35,10.71 -27.06,0.66 -54.03,-7.08 -81.05,-2.66 -13.39,2.01 -26.01,8.02 -36.24,16.86 6.37,-7.51 13.31,-14.78 21.91,-19.74 12.12,-7.28 26.46,-9.73 40.41,-9.89 24.7,-0.37 49.62,4.91 74.13,-0.07 z"
             id="path7-2-1-6" />
          <path
             fill="#0c5097"
             opacity="1"
             d="m 166.93,613.91 c 12.8,0.4 26.33,-1.86 36.56,-10.11 -6.1,6.88 -13.18,13.08 -21.51,17.12 -8.67,4.36 -18.43,6 -28.06,6.28 -14.27,0.36 -28.61,-1.4 -42.83,0.52 -13.51,1.66 -26.45,7 -37.43,15 -4.52,3.09 -8.43,6.94 -12.69,10.36 11.29,-15.44 25.56,-29.82 44.16,-35.89 19.9,-7 41.22,-3.77 61.8,-3.28 z"
             id="path9-2-2-8" />
        </g>
        <g
           id="#fcb713ff-4-9-5">
          <path
             fill="#fcb713"
             opacity="1"
             d="m 161.28,447.21 c 5.78,-2.19 13.02,-2.49 18.13,1.45 2.05,1.43 2.85,3.88 3.55,6.17 -5.2,-3.84 -12.58,-4.7 -18.16,-1.16 -7.34,4.55 -11.07,12.84 -13.93,20.64 -5.19,15.42 -7.33,31.64 -9.57,47.69 -2.45,19.32 -7.27,38.91 -18.08,55.37 -6.08,8.82 -14.35,17.31 -25.26,19.47 -6.12,1.7 -13.24,-0.98 -16.22,-6.71 3.41,0.87 6.75,2.65 10.37,2.08 6.12,-0.63 10.83,-5.18 14.49,-9.76 11.88,-15.76 17.58,-35.17 20.55,-54.44 3.15,-20.02 4.8,-40.74 13.56,-59.33 4.29,-9.05 10.88,-17.86 20.57,-21.47 z"
             id="path12-3-4-4" />
        </g>
        <g
           id="#98c647ff-9-0-9">
          <path
             fill="#98c647"
             opacity="1"
             d="m 171.72,469.74 c 8.23,-7.73 19.29,-12.71 30.53,-13.66 -12.17,7.19 -22.91,17.5 -28.63,30.6 -8.81,19.13 -6.7,41.28 -15.54,60.39 -4.34,9.79 -12.14,17.5 -20.28,24.24 9.34,-18.41 13.3,-38.81 16.64,-58.99 2.76,-15.07 5.93,-31.39 17.28,-42.58 z"
             id="path15-1-5-2" />
        </g>
        <g
           id="#3cc1d7ff-8-8-0">
          <path
             fill="#3cc1d7"
             opacity="1"
             d="m 206.93,479.5 c 5.68,-6.63 13.32,-11.84 22.04,-13.33 9.11,-1.86 19.72,-0.55 26.37,6.52 5.01,5 6.06,12.51 5.58,19.27 -0.92,14.68 -7.48,28.71 -17.25,39.6 -9.66,10.57 -23.38,17.5 -37.71,18.54 -7.93,0.52 -16.33,-1.33 -22.54,-6.51 -7.35,-6.02 -10.37,-16.69 -7.6,-25.72 2.77,-9.63 10.39,-17.44 19.53,-21.31 10.41,-4.34 22.1,-4.71 33.13,-2.89 7.36,0.87 14.3,3.53 21.45,5.33 2.51,-6.95 4.16,-15.38 0.06,-22.06 -3.54,-5.61 -11.1,-6.57 -17.06,-5.02 -4.36,1.13 -7.88,4.12 -10.88,7.35 -5.04,0.16 -10.08,0.26 -15.12,0.23 M 213,500 c -7.94,1.45 -16.03,4.36 -21.74,10.29 -3.92,4.01 -6.36,9.89 -5.07,15.51 1.34,6.2 6.61,11.22 12.83,12.39 9.06,1.67 18.4,-1.23 26.07,-6.04 9.75,-6.48 17.53,-16.08 21.89,-26.93 C 236.17,501.32 224.56,498.2 213,500 Z"
             id="path18-2-2-2" />
        </g>
        <g
           id="#ec2029ff-7-4-6">
          <path
             fill="#ec2029"
             opacity="1"
             d="m 88.11,530.13 c 5.48,-4.88 12.38,-9.12 19.99,-8.72 4.87,0.12 9.88,3.14 11.34,7.95 1.24,4.9 -0.34,10.61 -4.41,13.75 -3.14,1.93 -6.79,2.76 -10.22,4 4.01,-3.95 8.45,-8.92 7.76,-14.98 -0.23,-3.58 -4.16,-6.37 -7.59,-5.2 -6.11,1.83 -10.56,6.85 -14.42,11.68 -9.74,13.05 -14.96,28.86 -18.35,44.63 -1.61,7.44 -2.5,15.61 0.78,22.74 1.54,3.38 5.32,5.72 9.06,4.98 6.25,-0.82 10.73,-5.62 15.5,-9.26 -4.03,7.01 -10.35,12.63 -17.52,16.28 -4.16,2.26 -9.59,2.36 -13.49,-0.53 -5.94,-4.48 -7.66,-12.45 -7.96,-19.49 0.18,-11.39 3.67,-22.41 7.57,-33.02 4.59,-13.04 11.82,-25.33 21.96,-34.81 z"
             id="path134-6-6-8" />
        </g>
      </g>
      <path
         id="text3290"
         style="font-size:39.375px;line-height:1.25;font-family:'Rubrik Bold';-inkscape-font-specification:'Rubrik Bold, ';fill:#000000;fill-opacity:1;stroke:none;stroke-width:1.33333"
         d="m 1480.582,2836.9395 c -2.1525,0 -3.7285,1.6285 -3.7285,3.7285 0,2.1 1.6285,3.832 3.7285,3.832 2.0475,0 3.7266,-1.7845 3.7266,-3.832 0,-2.1 -1.6791,-3.7285 -3.7266,-3.7285 z m 95.0254,0 c -2.1525,0 -3.7285,1.6285 -3.7285,3.7285 0,2.1 1.6285,3.832 3.7285,3.832 2.0475,0 3.7266,-1.7845 3.7266,-3.832 0,-2.1 -1.6791,-3.7285 -3.7266,-3.7285 z m 71.7207,0 c -0.9647,0 -1.9221,0.3685 -2.6308,1.1035 -1.4175,1.4175 -1.4175,3.831 0,5.3535 1.4175,1.47 3.8307,1.47 5.3007,0 1.47,-1.5225 1.47,-3.936 0,-5.3535 -0.735,-0.735 -1.7052,-1.1035 -2.6699,-1.1035 z m 15.166,0 c -2.1525,0 -3.7285,1.6285 -3.7285,3.7285 0,2.1 1.6285,3.832 3.7285,3.832 2.0475,0 3.7266,-1.7845 3.7266,-3.832 0,-2.1 -1.6791,-3.7285 -3.7266,-3.7285 z m 219.9805,0 c -0.9647,0 -1.9221,0.3685 -2.6308,1.1035 -1.4175,1.4175 -1.4175,3.831 0,5.3535 1.4175,1.47 3.8327,1.47 5.3027,0 1.47,-1.5225 1.47,-3.936 0,-5.3535 -0.735,-0.735 -1.7072,-1.1035 -2.6719,-1.1035 z m -650.9512,1.0507 c -1.9425,0 -3.5175,1.5736 -3.5175,3.6211 v 30.7129 c 0,1.9425 1.6258,3.6231 3.5683,3.6231 1.9425,0 3.4668,-1.5756 3.4668,-3.6231 v -16.0117 c 1.1025,-1.26 3.359,-2.2051 5.459,-2.2051 2.94,0 4.7246,1.8364 4.7246,4.9864 v 13.125 c 0,2.1 1.5224,3.7285 3.4649,3.7285 2.1,0 3.5703,-1.6285 3.5703,-3.7285 v -13.4922 c 0,-7.4025 -3.8855,-11.4961 -10.6055,-11.4961 -2.6775,0 -5.4058,0.9443 -6.6133,2.0468 v -7.666 c 0,-2.0475 -1.5751,-3.6211 -3.5176,-3.6211 z m 31.4473,0 c -1.9425,0 -3.5176,1.5736 -3.5176,3.6211 v 30.7129 c 0,1.9425 1.6278,3.6231 3.5703,3.6231 1.9425,0 3.4649,-1.5756 3.4649,-3.6231 v -16.0117 c 1.1025,-1.26 3.359,-2.2051 5.459,-2.2051 2.94,0 4.7246,1.8364 4.7246,4.9864 v 13.125 c 0,2.1 1.5223,3.7285 3.4648,3.7285 2.1,0 3.5703,-1.6285 3.5703,-3.7285 v -13.4922 c 0,-7.4025 -3.8835,-11.4961 -10.6035,-11.4961 -2.6775,0 -5.4077,0.9443 -6.6152,2.0468 v -7.666 c 0,-2.0475 -1.5751,-3.6211 -3.5176,-3.6211 z m 280.9258,0 c -1.9425,0 -3.5176,1.5736 -3.5176,3.6211 v 30.7129 c 0,1.9425 1.6278,3.6231 3.5703,3.6231 1.9425,0 3.4649,-1.5756 3.4649,-3.6231 v -16.0117 c 1.1025,-1.26 3.3609,-2.2051 5.4609,-2.2051 2.94,0 4.7246,1.8364 4.7246,4.9864 v 13.125 c 0,2.1 1.5224,3.7285 3.4649,3.7285 2.1,0 3.5703,-1.6285 3.5703,-3.7285 v -13.4922 c 0,-7.4025 -3.8855,-11.4961 -10.6055,-11.4961 -2.6775,0 -5.4077,0.9443 -6.6152,2.0468 v -7.666 c 0,-2.0475 -1.5751,-3.6211 -3.5176,-3.6211 z m 227.6914,0 c -1.9425,0 -3.5176,1.5736 -3.5176,3.6211 v 30.7129 c 0,1.9425 1.6278,3.6231 3.5703,3.6231 1.9425,0 3.4649,-1.5756 3.4649,-3.6231 v -16.0117 c 1.1025,-1.26 3.3609,-2.2051 5.4609,-2.2051 2.94,0 4.7246,1.8364 4.7246,4.9864 v 13.125 c 0,2.1 1.5224,3.7285 3.4649,3.7285 2.1,0 3.5703,-1.6285 3.5703,-3.7285 v -13.4922 c 0,-7.4025 -3.8855,-11.4961 -10.6055,-11.4961 -2.6775,0 -5.4077,0.9443 -6.6152,2.0468 v -7.666 c 0,-2.0475 -1.5751,-3.6211 -3.5176,-3.6211 z m -564.2149,0.1036 c -4.3575,0 -8.0324,1.4189 -10.9199,4.2539 -2.8875,2.835 -4.4626,6.4039 -4.8301,10.7089 -0.21,2.73 -0.21,5.5127 0,8.3477 0.3675,4.305 1.9426,7.8759 4.8301,10.7109 2.8875,2.7825 6.5624,4.1993 10.9199,4.1993 2.9925,0 5.775,-0.7351 8.295,-2.2051 2.52,-1.5225 4.3565,-3.5701 5.459,-6.1426 0.2625,-0.6825 0.3691,-1.3114 0.3691,-1.9414 0,-1.89 -1.7851,-3.3613 -3.5176,-3.3613 -1.3125,0 -2.3629,0.6821 -3.1504,2.0996 -1.6275,3.0975 -4.0951,4.6211 -7.4551,4.6211 -5.04,0 -8.2438,-3.4649 -8.6113,-8.7149 -0.1575,-2.2575 -0.1575,-4.4632 0,-6.7207 0.3675,-5.25 3.6238,-8.9238 8.6113,-8.9238 3.36,0 5.8276,1.5216 7.4551,4.6191 0.84,1.4175 1.8904,2.0996 3.1504,2.0996 1.7325,0 3.5176,-1.4693 3.5176,-3.3593 0,-0.63 -0.1066,-1.2609 -0.3691,-1.9434 -1.1025,-2.5725 -2.939,-4.6198 -5.459,-6.0898 -2.52,-1.5225 -5.3025,-2.2579 -8.295,-2.2578 z m 312.5313,0 c -3.885,0 -7.0874,0.9974 -9.6074,3.0449 -2.52,2.0475 -3.7793,4.7257 -3.7793,8.0332 0,6.3 3.7796,9.5023 12.5996,11.3398 2.9925,0.5775 5.1441,1.2079 6.3516,1.8379 1.2075,0.5775 1.8378,1.5215 1.8378,2.834 0,2.5725 -2.52,4.0957 -6.5625,4.0957 -3.465,0 -6.4053,-0.8925 -8.8203,-2.625 -0.8925,-0.6825 -1.7852,-0.9981 -2.6777,-0.9981 -2.0475,0 -3.6211,1.5758 -3.6211,3.6758 0,1.155 0.6289,2.2584 1.9414,3.2559 3.255,2.4675 7.561,3.7266 12.916,3.7266 4.3575,0 7.7691,-1.0507 10.2891,-3.2032 2.52,-2.1525 3.7793,-4.8819 3.7793,-8.1894 0,-3.3075 -1.0485,-5.7753 -3.1485,-7.5078 -2.0475,-1.7325 -5.4607,-2.9923 -10.2382,-3.8848 -5.5125,-1.05 -7.4551,-2.0474 -7.4551,-4.3574 0,-2.3625 1.996,-4.043 6.3535,-4.043 2.31,0 4.4623,0.4732 6.5098,1.4707 0.9975,0.4725 1.8375,0.7344 2.625,0.7344 1.89,0 3.4121,-1.6278 3.4121,-3.5703 0,-1.05 -0.4198,-1.9408 -1.2598,-2.6758 -2.3625,-1.995 -6.1428,-2.9942 -11.4453,-2.9941 z m 178.4473,0.3164 c -3.36,0 -5.829,2.0988 -6.459,6.2988 l -3.7266,26.6699 c -0.053,0.1575 -0.053,0.4213 -0.053,0.7363 0,2.1525 1.366,3.8321 3.7285,3.8321 1.89,0 3.4109,-1.2087 3.5684,-2.8887 l 2.9941,-26.4063 c 0,-0.2625 0.1044,-0.3671 0.3145,-0.3671 0.1575,0 0.3146,0.1044 0.3671,0.3144 l 4.9883,23.7305 c 1.2075,7.14 10.7613,7.14 11.9688,0 l 4.9355,-23.7305 c 0.053,-0.42 0.6817,-0.42 0.6817,0 l 3.0449,26.4082 c 0.21,1.7325 1.6276,2.9395 3.5176,2.9395 2.3625,0 3.7812,-1.6273 3.7812,-3.8848 0,-0.315 -2e-4,-0.5788 -0.053,-0.7363 l -3.7793,-26.6172 c -0.63,-4.2 -3.099,-6.2988 -6.459,-6.2988 -3.6225,0 -5.8788,2.0475 -6.7188,6.1425 l -4.5156,22.8887 c -0.053,0.2625 -0.2097,0.3672 -0.3672,0.3672 -0.21,0 -0.3674,-0.1047 -0.4199,-0.3672 l -4.5684,-22.8887 c -0.84,-4.095 -3.0964,-6.1425 -6.7714,-6.1425 z m -374.9024,2.9394 c -1.9425,0 -3.5176,1.6283 -3.5176,3.6758 v 20.7363 c 0,6.2475 3.2037,10.3438 9.4512,10.3438 2.6775,0 4.7768,-0.3685 6.4043,-1.1035 1.47,-0.6825 2.2051,-1.6802 2.2051,-3.0977 0,-2.1 -1.8374,-3.6222 -4.3574,-2.9922 -1.4175,0.3675 -2.4664,0.5781 -3.2539,0.5781 -2.2575,0 -3.4141,-1.3122 -3.4141,-3.8847 v -10.8164 h 6.5625 c 1.7325,0 3.2559,-1.365 3.2559,-3.045 0,-1.8375 -1.5234,-3.1503 -3.2559,-3.1503 h -6.5625 v -3.5684 c 0,-2.0475 -1.5751,-3.6758 -3.5176,-3.6758 z m 134.1895,0 c -1.9425,0 -3.5176,1.6283 -3.5176,3.6758 v 20.7363 c 0,6.2475 3.2037,10.3438 9.4512,10.3438 2.6775,0 4.7768,-0.3685 6.4043,-1.1035 1.47,-0.6825 2.205,-1.6802 2.205,-3.0977 0,-2.1 -1.8374,-3.6222 -4.3574,-2.9922 -1.4175,0.3675 -2.4664,0.5781 -3.2539,0.5781 -2.2575,0 -3.4141,-1.3122 -3.4141,-3.8847 v -10.8164 h 6.5626 c 1.7324,0 3.2558,-1.365 3.2558,-3.045 0,-1.8375 -1.5233,-3.1503 -3.2558,-3.1503 h -6.5626 v -3.5684 c 0,-2.0475 -1.575,-3.6758 -3.5175,-3.6758 z m -156.2383,5.8809 c -3.0975,0 -5.6713,0.42 -7.7188,1.3125 -1.5225,0.63 -2.3086,1.6786 -2.3086,3.2011 0,2.2575 1.9426,3.623 4.8301,2.7305 1.8375,-0.5775 3.5166,-0.8926 5.0391,-0.8926 3.57,0 4.9883,1.3132 4.9883,4.0957 v 1.4161 c -2.205,-0.525 -4.1482,-0.7872 -5.8282,-0.7872 -7.2975,0 -10.8144,3.6761 -10.8144,8.5586 0,5.3025 3.8837,9.2403 11.0762,9.2403 4.5675,0 8.2431,-0.9462 11.0781,-2.8887 0.84,-0.5775 1.2598,-1.3643 1.2598,-2.4668 v -12.8633 c 0,-7.0875 -3.8841,-10.6562 -11.6016,-10.6562 z m 51.0293,0 c -5.9325,0 -9.2402,3.464 -9.2402,8.9765 v 16.17 c 0,1.9425 1.575,3.5703 3.5175,3.5703 1.9425,0 3.5176,-1.5228 3.5176,-3.5703 v -14.8575 c 0,-2.205 0.893,-3.3596 2.7305,-3.4121 1.1025,-0.052 3.255,0.4727 3.9375,0.4727 2.0475,0 3.3066,-1.6811 3.3066,-3.3086 0,-1.8375 -1.1014,-3.0436 -3.2539,-3.6211 -1.1025,-0.2625 -2.6256,-0.4199 -4.5156,-0.4199 z m 22.5234,0 c -3.0975,0 -5.6712,0.42 -7.7187,1.3125 -1.5225,0.63 -2.3106,1.6786 -2.3106,3.2011 0,2.2575 1.9426,3.623 4.8301,2.7305 1.8375,-0.5775 3.5185,-0.8926 5.041,-0.8926 3.57,0 4.9863,1.3132 4.9863,4.0957 v 1.4161 c -2.2049,-0.525 -4.1461,-0.7872 -5.8261,-0.7872 -7.2975,0 -10.8145,3.6761 -10.8145,8.5586 0,5.3025 3.8837,9.2403 11.0762,9.2403 4.5675,0 8.2431,-0.9462 11.0781,-2.8887 0.84,-0.5775 1.2598,-1.3643 1.2598,-2.4668 v -12.8633 c 0,-7.0875 -3.8841,-10.6562 -11.6016,-10.6562 z m 31.0274,0 c -4.8825,0 -9.3456,1.7846 -11.4981,3.4121 -0.5775,0.42 -0.8926,0.9976 -0.8926,1.7851 v 30.1875 c 0,2.0475 1.5751,3.6211 3.5176,3.6211 1.9425,0 3.5176,-1.5736 3.5176,-3.6211 v -7.8222 c 1.89,0.8925 3.8844,1.3125 5.9844,1.3125 6.93,0 11.1295,-4.0962 11.707,-10.7637 0.21,-2.415 0.21,-4.8289 0,-7.1914 -0.5775,-6.5625 -5.1959,-10.9199 -12.3359,-10.9199 z m 29.6093,0 c -3.0975,0 -5.6712,0.42 -7.7187,1.3125 -1.5225,0.63 -2.3086,1.6786 -2.3086,3.2011 0,2.2575 1.9426,3.623 4.8301,2.7305 1.8375,-0.5775 3.5165,-0.8926 5.039,-0.8926 3.57,0 4.9883,1.3132 4.9883,4.0957 v 1.4161 c -2.205,-0.525 -4.1481,-0.7872 -5.8281,-0.7872 -7.2975,0 -10.8145,3.6761 -10.8145,8.5586 0,5.3025 3.8837,9.2403 11.0762,9.2403 4.5675,0 8.2431,-0.9462 11.0781,-2.8887 0.84,-0.5775 1.2598,-1.3643 1.2598,-2.4668 v -12.8633 c 0,-7.0875 -3.8841,-10.6562 -11.6016,-10.6562 z m 189.42,0 c -3.0975,0 -5.6713,0.42 -7.7188,1.3125 -1.5225,0.63 -2.3105,1.6786 -2.3105,3.2011 0,2.2575 1.9425,3.623 4.83,2.7305 1.8375,-0.5775 3.5186,-0.8926 5.0411,-0.8926 3.57,0 4.9882,1.3132 4.9882,4.0957 v 1.4161 c -2.205,-0.525 -4.1481,-0.7872 -5.8281,-0.7872 -7.2975,0 -10.8144,3.6761 -10.8144,8.5586 0,5.3025 3.8836,9.2403 11.0761,9.2403 4.5675,0 8.2432,-0.9462 11.0782,-2.8887 0.84,-0.5775 1.2597,-1.3643 1.2597,-2.4668 v -12.8633 c 0,-7.0875 -3.884,-10.6562 -11.6015,-10.6562 z m 124.2656,0 c -3.0975,0 -5.6693,0.42 -7.7168,1.3125 -1.5225,0.63 -2.3106,1.6786 -2.3106,3.2011 0,2.2575 1.9426,3.623 4.8301,2.7305 1.8375,-0.5775 3.5185,-0.8926 5.041,-0.8926 3.57,0 4.9864,1.3132 4.9864,4.0957 v 1.4161 c -2.205,-0.525 -4.1462,-0.7872 -5.8262,-0.7872 -7.2975,0 -10.8164,3.6761 -10.8164,8.5586 0,5.3025 3.8856,9.2403 11.0781,9.2403 4.5675,0 8.2431,-0.9462 11.0781,-2.8887 0.84,-0.5775 1.2598,-1.3643 1.2598,-2.4668 v -12.8633 c 0,-7.0875 -3.886,-10.6562 -11.6035,-10.6562 z m 60.7422,0 c -3.0975,0 -5.6693,0.42 -7.7168,1.3125 -1.5225,0.63 -2.3106,1.6786 -2.3106,3.2011 0,2.2575 1.9426,3.623 4.8301,2.7305 1.8375,-0.5775 3.5185,-0.8926 5.041,-0.8926 3.57,0 4.9864,1.3132 4.9864,4.0957 v 1.4161 c -2.205,-0.525 -4.1462,-0.7872 -5.8262,-0.7872 -7.2975,0 -10.8164,3.6761 -10.8164,8.5586 0,5.3025 3.8856,9.2403 11.0781,9.2403 4.5675,0 8.2431,-0.9462 11.0781,-2.8887 0.84,-0.5775 1.2598,-1.3643 1.2598,-2.4668 v -12.8633 c 0,-7.0875 -3.886,-10.6562 -11.6035,-10.6562 z m 27.6152,0 c -5.9325,0 -9.2402,3.464 -9.2402,8.9765 v 16.17 c 0,1.9425 1.5751,3.5703 3.5176,3.5703 1.9425,0 3.5175,-1.5228 3.5175,-3.5703 v -14.8575 c 0,-2.205 0.893,-3.3596 2.7305,-3.4121 1.1025,-0.052 3.255,0.4727 3.9375,0.4727 2.0475,0 3.3086,-1.6811 3.3086,-3.3086 0,-1.8375 -1.1034,-3.0436 -3.2559,-3.6211 -1.1025,-0.2625 -2.6256,-0.4199 -4.5156,-0.4199 z m 22.5234,0 c -3.0975,0 -5.6712,0.42 -7.7187,1.3125 -1.5225,0.63 -2.3086,1.6786 -2.3086,3.2011 0,2.2575 1.9426,3.623 4.8301,2.7305 1.8375,-0.5775 3.5165,-0.8926 5.039,-0.8926 3.57,0 4.9883,1.3132 4.9883,4.0957 v 1.4161 c -2.205,-0.525 -4.1481,-0.7872 -5.8281,-0.7872 -7.2975,0 -10.8145,3.6761 -10.8144,8.5586 0,5.3025 3.8836,9.2403 11.0761,9.2403 4.5675,0 8.2431,-0.9462 11.0781,-2.8887 0.84,-0.5775 1.2598,-1.3643 1.2598,-2.4668 v -12.8633 c 0,-7.0875 -3.8841,-10.6562 -11.6016,-10.6562 z m -379.5742,0.1562 c -2.0475,0 -3.5175,1.5756 -3.5175,3.6231 v 21.3144 c 0,1.9425 1.6275,3.6231 3.5175,3.6231 1.9425,0 3.5176,-1.5756 3.5176,-3.6231 v -21.3144 c 0,-2.0475 -1.5751,-3.6231 -3.5176,-3.6231 z m 95.0254,0 c -2.0475,0 -3.5176,1.5756 -3.5176,3.6231 v 21.3144 c 0,1.9425 1.6276,3.6231 3.5176,3.6231 1.9425,0 3.5176,-1.5756 3.5176,-3.6231 v -21.3144 c 0,-2.0475 -1.5751,-3.6231 -3.5176,-3.6231 z m 12.9141,0 c -1.3125,0 -2.3627,0.5245 -3.0977,1.627 -0.735,1.05 -0.8397,2.258 -0.3672,3.623 l 6.7207,18.4805 c 1.2075,3.3075 3.2551,4.9883 6.1426,4.9883 2.94,0 5.0388,-1.6813 6.2989,-5.0938 l 6.7207,-18.375 c 0.4725,-1.365 0.3678,-2.573 -0.3672,-3.623 -0.6825,-1.1025 -1.7325,-1.627 -3.045,-1.627 -1.6275,0 -3.1505,1.1035 -3.623,2.836 l -5.5137,17.2714 c -0.053,0.2625 -0.2097,0.3672 -0.3672,0.3672 -0.21,0 -0.3674,-0.1047 -0.4199,-0.3672 l -5.5644,-17.3242 c -0.5775,-1.8375 -1.7851,-2.7832 -3.5176,-2.7832 z m 58.8515,0 c -2.0475,0 -3.5175,1.5756 -3.5175,3.6231 v 19.2148 c 0,3.9375 -0.7864,6.1945 -3.6739,9.502 -0.5775,0.6825 -0.8925,1.4707 -0.8925,2.3632 0,1.89 1.4166,3.4122 3.3066,3.4122 1.05,0 1.9425,-0.3683 2.625,-1.0508 3.78,-3.78 5.6699,-8.9768 5.6699,-15.5918 v -17.8496 c 0,-2.0475 -1.5751,-3.6231 -3.5176,-3.6231 z m 15.1211,0 c -2.0475,0 -3.5175,1.5756 -3.5175,3.6231 v 21.3144 c 0,1.9425 1.6275,3.6231 3.5175,3.6231 1.9425,0 3.5176,-1.5756 3.5176,-3.6231 v -21.3144 c 0,-2.0475 -1.5751,-3.6231 -3.5176,-3.6231 z m 220.0274,0 c -2.0475,0 -3.5176,1.5756 -3.5176,3.6231 v 19.2148 c 0,3.9375 -0.7883,6.1945 -3.6758,9.502 -0.5775,0.6825 -0.8926,1.4707 -0.8926,2.3632 0,1.89 1.4167,3.4122 3.3067,3.4122 1.05,0 1.9425,-0.3683 2.625,-1.0508 3.78,-3.78 5.6719,-8.9768 5.6719,-15.5918 v -17.8496 c 0,-2.0475 -1.5751,-3.6231 -3.5176,-3.6231 z m -476.6992,6.6153 c 3.36,0 5.1965,1.7325 5.4589,5.25 0.1575,1.785 0.1576,3.4642 0,5.0918 -0.2624,3.3599 -2.046,5.041 -5.3535,5.041 -2.0475,0 -4.3052,-0.7355 -5.3027,-1.418 v -12.3906 c 0.9975,-0.7875 3.4648,-1.5742 5.1973,-1.5742 z m -104.8418,9.1875 c 1.6275,0 3.36,0.2623 5.25,0.8398 v 4.7246 c -1.4175,0.8925 -3.1513,1.3652 -5.0938,1.3652 -2.94,0 -4.7246,-1.26 -4.7246,-3.5175 0,-2.0475 1.7859,-3.4121 4.5684,-3.4121 z m 73.5507,0 c 1.6275,0 3.36,0.2623 5.25,0.8398 v 4.7246 c -1.4175,0.8925 -3.1492,1.3652 -5.0917,1.3652 -2.94,0 -4.7247,-1.26 -4.7247,-3.5175 0,-2.0475 1.7839,-3.4121 4.5664,-3.4121 z m 60.6387,0 c 1.6275,0 3.36,0.2623 5.25,0.8398 v 4.7246 c -1.4175,0.8925 -3.1512,1.3652 -5.0937,1.3652 -2.94,0 -4.7246,-1.26 -4.7246,-3.5175 0,-2.0475 1.7858,-3.4121 4.5683,-3.4121 z m 189.4199,0 c 1.6275,0 3.36,0.2623 5.25,0.8398 v 4.7246 c -1.4175,0.8925 -3.1512,1.3652 -5.0937,1.3652 -2.94,0 -4.7246,-1.26 -4.7246,-3.5175 0,-2.0475 1.7858,-3.4121 4.5683,-3.4121 z m 124.2657,0 c 1.6275,0 3.36,0.2623 5.25,0.8398 v 4.7246 c -1.4175,0.8925 -3.1493,1.3652 -5.0918,1.3652 -2.94,0 -4.7246,-1.26 -4.7246,-3.5175 0,-2.0475 1.7839,-3.4121 4.5664,-3.4121 z m 60.7422,0 c 1.6275,0 3.36,0.2623 5.25,0.8398 v 4.7246 c -1.4175,0.8925 -3.1493,1.3652 -5.0918,1.3652 -2.94,0 -4.7247,-1.26 -4.7247,-3.5175 0,-2.0475 1.784,-3.4121 4.5665,-3.4121 z m 50.1386,0 c 1.6275,0 3.36,0.2623 5.25,0.8398 v 4.7246 c -1.4175,0.8925 -3.1512,1.3652 -5.0937,1.3652 -2.94,0 -4.7246,-1.26 -4.7246,-3.5175 0,-2.0475 1.7858,-3.4121 4.5683,-3.4121 z m -524.9218,33.5859 c -1.8,0 -3.0231,0.9003 -3.7071,2.7363 l -7.4883,20.8809 c -0.036,0.108 -0.072,0.2879 -0.072,0.5039 0,0.828 0.5414,1.5117 1.4414,1.5117 0.684,0 1.1503,-0.3235 1.4023,-0.9355 l 2.6641,-7.5254 h 11.4844 l 2.664,7.5254 c 0.252,0.612 0.7203,0.9355 1.4043,0.9355 0.864,0 1.4395,-0.6837 1.4395,-1.5117 0,-0.252 -0.036,-0.3959 -0.072,-0.5039 l -7.4863,-20.8809 c -0.612,-1.836 -1.8378,-2.7363 -3.6738,-2.7363 z m 107.2812,0 c -1.8,0 -3.025,0.9003 -3.709,2.7363 l -7.4883,20.8809 c -0.036,0.108 -0.072,0.2879 -0.072,0.5039 0,0.828 0.5414,1.5117 1.4414,1.5117 0.684,0 1.1523,-0.3235 1.4043,-0.9355 l 2.664,-7.5254 h 11.4825 l 2.664,7.5254 c 0.252,0.612 0.7203,0.9355 1.4043,0.9355 0.864,0 1.4395,-0.6837 1.4395,-1.5117 0,-0.252 -0.034,-0.3959 -0.07,-0.5039 l -7.4883,-20.8809 c -0.612,-1.836 -1.8359,-2.7363 -3.6719,-2.7363 z m 54.1426,0 c -1.8,0 -3.0231,0.9003 -3.7071,2.7363 l -7.4882,20.8809 c -0.036,0.108 -0.072,0.2879 -0.072,0.5039 0,0.828 0.5395,1.5117 1.4395,1.5117 0.684,0 1.1523,-0.3235 1.4043,-0.9355 l 2.664,-7.5254 h 11.4844 l 2.6641,7.5254 c 0.252,0.612 0.7202,0.9355 1.4042,0.9355 0.864,0 1.4395,-0.6837 1.4395,-1.5117 0,-0.252 -0.036,-0.3959 -0.072,-0.5039 l -7.4882,-20.8809 c -0.612,-1.836 -1.8359,-2.7363 -3.6719,-2.7363 z m -106.9551,0.037 c -2.844,0 -5.2915,0.9709 -7.2715,2.8789 -1.98,1.908 -3.0613,4.3201 -3.2773,7.1641 -0.144,1.908 -0.144,3.852 0,5.832 0.18,2.844 1.2973,5.2561 3.2773,7.1641 1.98,1.908 4.4275,2.8808 7.2715,2.8808 2.88,0 5.3278,-0.9728 7.3438,-2.8808 2.016,-1.908 3.1325,-4.3201 3.3125,-7.1641 0.144,-1.98 0.144,-3.924 0,-5.832 -0.18,-2.844 -1.2965,-5.219 -3.3125,-7.127 -2.016,-1.944 -4.4638,-2.916 -7.3438,-2.916 z m 190.1523,0 c -2.844,0 -5.2934,0.9709 -7.2734,2.8789 -1.98,1.908 -3.0594,4.3201 -3.2754,7.1641 -0.144,1.908 -0.144,3.852 0,5.832 0.18,2.844 1.2954,5.2561 3.2754,7.1641 1.98,1.908 4.4294,2.8808 7.2734,2.8808 2.88,0 5.3278,-0.9728 7.3438,-2.8808 2.016,-1.908 3.1325,-4.3201 3.3125,-7.1641 0.144,-1.98 0.144,-3.924 0,-5.832 -0.18,-2.844 -1.2965,-5.219 -3.3125,-7.127 -2.016,-1.944 -4.4638,-2.916 -7.3438,-2.916 z m -385.7753,0.1797 c -0.828,0 -1.4766,0.6837 -1.4766,1.5117 v 22.5 c 0,0.828 0.6486,1.5117 1.4766,1.5117 0.864,0 1.4746,-0.6477 1.4746,-1.5117 v -22.5 c 0,-0.864 -0.6106,-1.5117 -1.4746,-1.5117 z m 27.6836,0 c -0.828,0 -1.4766,0.6837 -1.4766,1.5117 v 15.0117 c 0,1.944 0.1445,4.3573 0.1445,5.3653 h -0.072 l -12.5997,-20.4493 c -0.54,-0.936 -1.3692,-1.4043 -2.4492,-1.4043 -1.476,0 -2.5195,1.153 -2.5195,2.6289 v 21.3477 c 0,0.828 0.7206,1.5117 1.4766,1.5117 0.864,0 1.4765,-0.6477 1.4765,-1.5117 v -15.0117 c 0,-0.756 -0.037,-2.6281 -0.1094,-5.5801 h 0.072 l 12.7813,20.6992 c 0.54,0.9 1.331,1.3321 2.375,1.3321 1.404,0 2.3769,-1.0796 2.3769,-2.5196 v -21.4199 c 0,-0.864 -0.6125,-1.5117 -1.4765,-1.5117 z m 96.1914,0 c -0.828,0 -1.4766,0.6837 -1.4766,1.5117 v 15.0117 c 0,1.944 0.1445,4.3573 0.1445,5.3653 h -0.072 l -12.5997,-20.4493 c -0.5399,-0.936 -1.3672,-1.4043 -2.4472,-1.4043 -1.476,0 -2.5215,1.153 -2.5215,2.6289 v 21.3477 c 0,0.828 0.7206,1.5117 1.4766,1.5117 0.864,0 1.4765,-0.6477 1.4765,-1.5117 v -15.0117 c 0,-0.756 -0.035,-2.6281 -0.1074,-5.5801 h 0.07 l 12.7813,20.6992 c 0.54,0.9 1.331,1.3321 2.375,1.3321 1.404,0 2.3769,-1.0796 2.3769,-2.5196 v -21.4199 c 0,-0.864 -0.6125,-1.5117 -1.4765,-1.5117 z m 53.3515,0 c -0.828,0 -1.4746,0.6837 -1.4746,1.5117 v 22.5 c 0,0.828 0.6466,1.5117 1.4746,1.5117 0.864,0 1.4766,-0.6477 1.4766,-1.5117 v -22.5 c 0,-0.864 -0.6126,-1.5117 -1.4766,-1.5117 z m 53.9278,0 c -0.828,0 -1.4747,0.6837 -1.4747,1.5117 v 15.0117 c 0,1.944 0.1426,4.3573 0.1426,5.3653 h -0.07 l -12.6016,-20.4493 c -0.54,-0.936 -1.3672,-1.4043 -2.4472,-1.4043 -1.476,0 -2.5196,1.153 -2.5195,2.6289 v 21.3477 c 0,0.828 0.7186,1.5117 1.4746,1.5117 0.864,0 1.4765,-0.6477 1.4765,-1.5117 v -15.0117 c 0,-0.756 -0.035,-2.6281 -0.1074,-5.5801 h 0.072 l 12.7793,20.6992 c 0.54,0.9 1.3329,1.3321 2.3769,1.3321 1.404,0 2.375,-1.0796 2.375,-2.5196 v -21.4199 c 0,-0.864 -0.6125,-1.5117 -1.4765,-1.5117 z m 34.4882,0 c -0.828,0 -1.4765,0.6837 -1.4765,1.5117 v 21.5273 c 0,1.3321 0.9361,2.3399 2.4121,2.3399 h 12.3125 c 0.864,0 1.5117,-0.5755 1.5117,-1.4395 0,-0.756 -0.6837,-1.4043 -1.5117,-1.4043 h -11.7715 v -21.0234 c 0,-0.864 -0.6126,-1.5117 -1.4766,-1.5117 z m 54.1446,0 c -0.828,0 -1.4766,0.6837 -1.4766,1.5117 v 22.5 c 0,0.828 0.6486,1.5117 1.4766,1.5117 0.864,0 1.4765,-0.6477 1.4765,-1.5117 v -22.5 c 0,-0.864 -0.6125,-1.5117 -1.4765,-1.5117 z m -284.8321,0.1445 c -0.864,0 -1.5117,0.5755 -1.5117,1.4395 0,0.756 0.6837,1.4043 1.5117,1.4043 h 7.2012 v 21.0234 c 0,0.828 0.6466,1.5117 1.4746,1.5117 0.828,0 1.4766,-0.6837 1.4766,-1.5117 v -21.0234 h 7.1289 c 0.828,0 1.4746,-0.6483 1.4746,-1.4043 0,-0.864 -0.6106,-1.4395 -1.4746,-1.4395 z m 25.5606,0 c -1.584,0 -2.5195,1.0073 -2.5196,2.4473 v 20.3398 c 0,1.404 0.9356,2.4473 2.5196,2.4473 h 12.4922 c 0.828,0 1.4746,-0.6115 1.4746,-1.4395 0,-0.756 -0.7186,-1.4043 -1.4746,-1.4043 h -12.0606 v -8.4589 h 11.6641 c 0.756,0 1.4394,-0.6483 1.4394,-1.4043 0,-0.828 -0.6114,-1.4043 -1.4394,-1.4043 h -11.6641 v -8.2793 h 11.9883 c 0.756,0 1.4766,-0.6483 1.4766,-1.4043 0,-0.828 -0.6486,-1.4395 -1.4766,-1.4395 z m 22.4277,0 c -1.548,0 -2.4473,1.0081 -2.4473,2.4121 v 21.4551 c 0,0.828 0.7187,1.5117 1.4747,1.5117 0.756,0 1.4765,-0.6837 1.4765,-1.5117 v -8.4961 h 4.3555 c 0.9,0 1.3316,0.3244 2.0156,1.1524 l 6.7695,8.3515 c 0.288,0.324 0.6481,0.5039 1.0801,0.5039 0.828,0 1.5117,-0.7189 1.5117,-1.5468 0,-0.3601 -0.1082,-0.6484 -0.3242,-0.9004 l -6.5527,-8.0996 c 3.78,-0.6121 6.1211,-2.9518 6.1211,-7.0918 0,-2.412 -0.7919,-4.3215 -2.3399,-5.6895 -1.548,-1.368 -3.4928,-2.0508 -5.7968,-2.0508 z m 69.7676,0 c -0.864,0 -1.5117,0.5755 -1.5117,1.4395 0,0.756 0.6837,1.4043 1.5117,1.4043 h 7.2012 v 21.0234 c 0,0.828 0.6466,1.5117 1.4746,1.5117 0.828,0 1.4765,-0.6837 1.4765,-1.5117 v -21.0234 h 7.127 c 0.828,0 1.4766,-0.6483 1.4766,-1.4043 0,-0.864 -0.6126,-1.4395 -1.4766,-1.4395 z m 178.2363,0 c -1.548,0 -2.4492,1.0081 -2.4492,2.4121 v 21.4551 c 0,0.828 0.7206,1.5117 1.4766,1.5117 0.756,0 1.4765,-0.6837 1.4765,-1.5117 v -8.4961 h 4.3555 c 0.9,0 1.3316,0.3244 2.0156,1.1524 l 6.7696,8.3515 c 0.288,0.324 0.6461,0.5039 1.0781,0.5039 0.828,0 1.5136,-0.7189 1.5137,-1.5468 0,-0.3601 -0.1083,-0.6484 -0.3243,-0.9004 l -6.5527,-8.0996 c 3.78,-0.6121 6.1211,-2.9518 6.1211,-7.0918 0,-2.412 -0.7938,-4.3215 -2.3418,-5.6895 -1.548,-1.368 -3.4909,-2.0508 -5.7949,-2.0508 z m 24.4082,0 c -1.548,0 -2.4492,1.0081 -2.4492,2.4121 v 21.4551 c 0,0.828 0.7206,1.5117 1.4766,1.5117 0.756,0 1.4765,-0.6837 1.4765,-1.5117 v -8.0644 h 6.4785 c 2.484,0 4.536,-0.6839 6.084,-2.0879 1.584,-1.404 2.377,-3.3481 2.377,-5.8321 0,-2.412 -0.793,-4.3557 -2.377,-5.7597 -1.548,-1.404 -3.4909,-2.1231 -5.7949,-2.1231 z m 49.4278,0 c -1.548,0 -2.4493,1.0081 -2.4493,2.4121 v 21.4551 c 0,0.828 0.7206,1.5117 1.4766,1.5117 0.756,0 1.4766,-0.6837 1.4766,-1.5117 v -8.4961 h 4.3554 c 0.9,0 1.3317,0.3244 2.0157,1.1524 l 6.7675,8.3515 c 0.288,0.324 0.6481,0.5039 1.0801,0.5039 0.828,0 1.5137,-0.7189 1.5137,-1.5468 0,-0.3601 -0.1082,-0.6484 -0.3242,-0.9004 l -6.5528,-8.0996 c 3.78,-0.6121 6.1211,-2.9518 6.1211,-7.0918 0,-2.412 -0.7938,-4.3215 -2.3418,-5.6895 -1.548,-1.368 -3.4909,-2.0508 -5.7949,-2.0508 z m 20.1601,0 c -0.864,0 -1.5117,0.5755 -1.5117,1.4395 0,0.756 0.6837,1.4043 1.5117,1.4043 h 7.1992 v 21.0234 c 0,0.828 0.6486,1.5117 1.4766,1.5117 0.828,0 1.4746,-0.6837 1.4746,-1.5117 v -21.0234 h 7.1289 c 0.828,0 1.4766,-0.6483 1.4766,-1.4043 0,-0.864 -0.6126,-1.4395 -1.4766,-1.4395 z m -283.789,2.5098 c 0.387,0 0.7755,0.2445 0.9375,0.7305 l 3.7792,10.7636 h -9.4687 l 3.8164,-10.7636 c 0.162,-0.486 0.5486,-0.7305 0.9356,-0.7305 z m 107.2812,0 c 0.387,0 0.7735,0.2445 0.9355,0.7305 l 3.7793,10.7636 h -9.4667 l 3.8144,-10.7636 c 0.162,-0.486 0.5505,-0.7305 0.9375,-0.7305 z m 54.1426,0 c 0.387,0 0.7755,0.2445 0.9375,0.7305 l 3.7793,10.7636 h -9.4688 l 3.8164,-10.7636 c 0.162,-0.486 0.5486,-0.7305 0.9356,-0.7305 z m -106.9551,0.01 c 2.052,0 3.8167,0.6839 5.2207,2.0879 1.44,1.368 2.2673,3.0967 2.4473,5.2207 0.18,1.872 0.18,3.7441 0,5.5801 -0.18,2.124 -1.0081,3.887 -2.4121,5.291 -1.404,1.368 -3.1679,2.0528 -5.2559,2.0528 -2.052,0 -3.8167,-0.6848 -5.2207,-2.0528 -1.404,-1.404 -2.195,-3.167 -2.375,-5.291 -0.144,-1.836 -0.144,-3.7081 0,-5.5801 0.18,-2.124 1.0081,-3.8878 2.4121,-5.2558 1.404,-1.368 3.1316,-2.0527 5.1836,-2.0528 z m 190.1523,0 c 2.052,0 3.8148,0.6839 5.2188,2.0879 1.44,1.368 2.2692,3.0967 2.4492,5.2207 0.18,1.872 0.18,3.7441 0,5.5801 -0.18,2.124 -1.0081,3.887 -2.4121,5.291 -1.404,1.368 -3.1679,2.0528 -5.2559,2.0528 -2.052,0 -3.8167,-0.6848 -5.2207,-2.0528 -1.404,-1.404 -2.195,-3.167 -2.375,-5.291 -0.144,-1.836 -0.144,-3.7081 0,-5.5801 0.18,-2.124 1.0062,-3.8878 2.4102,-5.2558 1.404,-1.368 3.1335,-2.0527 5.1855,-2.0528 z m -302.3281,0.3243 h 6.6602 c 3.564,0 5.3281,1.8365 5.3281,4.8965 0,3.204 -1.8358,4.8222 -5.5078,4.8222 h -6.4805 z m 248.0039,0 h 6.6602 c 3.564,0 5.3281,1.8365 5.3281,4.8965 0,3.204 -1.8358,4.8222 -5.5078,4.8222 h -6.4805 z m 24.4082,0 h 6.6231 c 3.564,0 5.2929,1.9081 5.2929,5.0761 0,3.348 -1.8366,5.0391 -5.4726,5.0391 h -6.4434 z m 49.4278,0 h 6.6601 c 3.564,0 5.3281,1.8365 5.3281,4.8965 0,3.204 -1.8358,4.8222 -5.5078,4.8222 h -6.4804 z m -280.8711,41.8672 c -1.8,0 -3.025,0.9003 -3.709,2.7363 l -7.4883,20.8808 c -0.036,0.108 -0.072,0.288 -0.072,0.504 0,0.8279 0.5414,1.5117 1.4414,1.5117 0.684,0 1.1523,-0.3236 1.4043,-0.9356 l 2.6622,-7.5254 h 11.4843 l 2.6641,7.5254 c 0.252,0.612 0.7203,0.9356 1.4043,0.9356 0.864,0 1.4394,-0.6838 1.4394,-1.5117 0,-0.252 -0.034,-0.396 -0.07,-0.504 l -7.4883,-20.8808 c -0.612,-1.836 -1.8358,-2.7363 -3.6718,-2.7363 z m -120.8164,0.072 c -1.62,0 -2.8448,0.9358 -3.1328,2.8438 l -3.0958,21.0234 c -0.144,1.008 0.4326,1.8379 1.4766,1.8379 0.828,0 1.2963,-0.3975 1.4043,-1.1895 l 2.9512,-21.2031 c 0.072,-0.252 0.2165,-0.3613 0.3965,-0.3613 0.18,0 0.2884,0.1082 0.3964,0.3242 l 4.6797,19.5488 c 0.432,1.836 1.4395,2.7364 3.0235,2.7364 1.548,0 2.5563,-0.9004 2.9883,-2.7364 l 4.6796,-19.5488 c 0.18,-0.432 0.685,-0.4309 0.793,0.037 l 2.9512,21.2031 c 0.108,0.792 0.6114,1.1895 1.4394,1.1895 1.044,0 1.6206,-0.829 1.4766,-1.873 l -3.1328,-20.9883 c -0.36,-3.852 -5.8306,-3.5991 -6.2266,-0.2871 l -4.5371,19.8359 c -0.144,0.468 -0.647,0.468 -0.791,0 l -4.6445,-19.8359 c -0.396,-1.692 -1.4397,-2.5567 -3.0957,-2.5567 z m 59.9043,0 c -1.62,0 -2.8449,0.9358 -3.1329,2.8438 l -3.0957,21.0234 c -0.144,1.008 0.4326,1.8379 1.4766,1.8379 0.828,0 1.2963,-0.3975 1.4043,-1.1895 l 2.9512,-21.2031 c 0.072,-0.252 0.2165,-0.3613 0.3965,-0.3613 0.18,0 0.2865,0.1082 0.3945,0.3242 l 4.6816,19.5488 c 0.432,1.836 1.4395,2.7364 3.0235,2.7364 1.548,0 2.5563,-0.9004 2.9883,-2.7364 l 4.6796,-19.5488 c 0.18,-0.432 0.6831,-0.4309 0.7911,0.037 l 2.9531,21.2031 c 0.108,0.792 0.6114,1.1895 1.4394,1.1895 1.044,0 1.6206,-0.829 1.4766,-1.873 l -3.1328,-20.9883 c -0.36,-3.852 -5.8306,-3.5991 -6.2266,-0.2871 l -4.5371,19.8359 c -0.144,0.468 -0.647,0.468 -0.791,0 l -4.6445,-19.8359 c -0.396,-1.692 -1.4397,-2.5567 -3.0957,-2.5567 z m -30.8536,0.1446 c -0.828,0 -1.4746,0.6837 -1.4746,1.5117 v 13.6445 c 0,3.132 0.9709,5.6509 2.8789,7.6309 1.908,1.98 4.3566,2.9531 7.3086,2.9531 2.952,0 5.4006,-0.9731 7.3086,-2.9531 1.908,-1.98 2.8789,-4.4989 2.8789,-7.6309 v -13.6445 c 0,-0.828 -0.6466,-1.5117 -1.4746,-1.5117 -0.828,0 -1.4765,0.6837 -1.4765,1.5117 v 13.6074 c 0,2.34 -0.6848,4.2483 -2.0528,5.6523 -1.332,1.404 -3.0596,2.125 -5.1836,2.125 -2.124,0 -3.8527,-0.721 -5.2207,-2.125 -1.332,-1.404 -2.0156,-3.3123 -2.0156,-5.6523 v -13.6074 c 0,-0.828 -0.6486,-1.5117 -1.4766,-1.5117 z m 108.9727,0 c -0.828,0 -1.4766,0.6837 -1.4766,1.5117 v 22.5 c 0,0.828 0.6486,1.5117 1.4766,1.5117 0.864,0 1.4766,-0.6477 1.4766,-1.5117 v -22.5 c 0,-0.864 -0.6126,-1.5117 -1.4766,-1.5117 z m -47.3398,0.1445 c -1.584,0 -2.5196,1.0072 -2.5196,2.4472 v 20.3399 c 0,1.404 0.9356,2.4473 2.5196,2.4473 h 8.3886 c 4.464,0 7.5235,-2.2673 7.5235,-7.1993 0,-3.06 -1.5475,-5.2551 -4.1035,-5.8671 v -0.072 c 2.268,-0.792 3.3828,-2.6652 3.3828,-5.6172 0,-1.836 -0.6482,-3.3474 -1.9082,-4.6074 -1.26,-1.26 -3.0231,-1.8711 -5.2911,-1.8711 z m 30.1328,2.5098 c 0.387,0 0.7735,0.2425 0.9355,0.7285 l 3.7793,10.7656 h -9.4668 l 3.8145,-10.7656 c 0.162,-0.486 0.5505,-0.7285 0.9375,-0.7285 z m -29.7012,0.3339 h 7.3809 c 2.952,0 4.4277,1.3321 4.4277,3.9961 0,2.628 -1.4757,3.959 -4.4277,3.959 h -7.3809 z m 0,10.7637 h 7.9199 c 2.736,0 4.5371,1.6195 4.5371,4.3555 0,2.952 -1.6205,4.4277 -4.8965,4.4277 h -7.5605 z"
         transform="scale(0.75)" />
    </g>
    <rect
       style="fill:#000000;fill-opacity:1;stroke:none;stroke-width:1.00773"
       id="rect15446"
       width="5"
       height="200"
       x="268.74844"
       y="1129.5804" />
  </g>
</svg>
